<svg xmlns="http://www.w3.org/2000/svg" width="1920" height="1080" version="1.0" viewBox="0 0 1440 809.999993"><defs><clipPath id="a"><path d="M626 334.574219h188.625v141H626Zm0 0"/></clipPath><clipPath id="b"><path d="M712 401h102.625v58H712Zm0 0"/></clipPath></defs><g clip-path="url(#a)"><path fill="#545454" d="M631.890625 469.695312H808.34375V340.449219H631.890625Zm179.394531 5.878907H628.949219c-1.621094 0-2.9375-1.316407-2.9375-2.941407V337.511719c0-1.625 1.316406-2.941407 2.9375-2.941407h182.335937c1.625 0 2.941406 1.316407 2.941406 2.941407v135.121093c0 1.625-1.316406 2.941407-2.941406 2.941407"/></g><path fill="#545454" d="M628.949219 450.367188c-.738281 0-1.480469-.277344-2.050781-.832032-1.164063-1.136718-1.1875-2.996094-.054688-4.160156l51.027344-52.332031c.554687-.566407 1.3125-.886719 2.105468-.886719.792969 0 1.554688.320312 2.105469.886719l45.246094 46.402343c1.132813 1.164063 1.109375 3.023438-.054687 4.15625-1.164063 1.132813-3.023438 1.109376-4.15625-.050781l-43.140626-44.242187-48.917968 50.171875c-.578125.589843-1.34375.886719-2.109375.886719"/><g clip-path="url(#b)"><path fill="#545454" d="M811.285156 458.042969c-.765625 0-1.527344-.300781-2.105468-.890625l-47.558594-48.773438-34.292969 35.171875-9.390625 9.628907c-1.136719 1.164062-2.996094 1.1875-4.160156.054687-1.164063-1.136719-1.1875-2.996094-.054688-4.160156l9.394532-9.628907 36.398437-37.332031c.550781-.566406 1.308594-.886719 2.105469-.886719.792968 0 1.550781.320313 2.105468.886719l49.664063 50.933594c1.136719 1.164063 1.113281 3.027344-.050781 4.160156-.570313.554688-1.3125.835938-2.054688.835938"/></g><path fill="#545454" d="M735.539062 363.160156c-6.457031 0-11.710937 5.253906-11.710937 11.710938 0 6.453125 5.253906 11.707031 11.710937 11.707031 6.457032 0 11.710938-5.253906 11.710938-11.707031 0-6.457032-5.253906-11.710938-11.710938-11.710938Zm0 29.296875c-9.699218 0-17.589843-7.890625-17.589843-17.585937 0-9.699219 7.890625-17.589844 17.589843-17.589844 9.703126 0 17.59375 7.890625 17.59375 17.589844 0 9.695312-7.890624 17.585937-17.59375 17.585937"/></svg>