<svg xmlns="http://www.w3.org/2000/svg" width="370" height="556" version="1.0" viewBox="0 0 277.5 416.99999"><path fill="#fff" d="M85.198593 209.559969v4.75h6.46875v1.234375h-7.953125v-12.6875h7.8125v1.234375h-6.328125v4.234375h5.59375v1.234375ZM94.51569 215.544344h-1.5625l2.953125-4.96875-2.8125-4.609375h1.59375l2.21875 3.6875h.203125l2.21875-3.6875h1.53125l-2.75 4.609375 2.890625 4.96875h-1.59375l-2.359375-4.046875h-.203125ZM103.113554 219.419344v-13.453125h1.40625v1.4375l.1875.03125c.707031-1.101563 1.753906-1.65625 3.140625-1.65625.789062 0 1.484375.183594 2.078125.546875.601563.367188 1.066406.921875 1.390625 1.671875.332031.742187.5 1.664063.5 2.765625 0 1.09375-.179688 2.011719-.53125 2.75-.34375.742188-.824219 1.296875-1.4375 1.671875-.605469.36328125-1.308594.546875-2.109375.546875-.648437 0-1.226563-.1171875-1.734375-.34375-.5-.226562-.933594-.597656-1.296875-1.109375l-.1875.03125v5.109375Zm4.3125-4.953125c1.9375 0 2.90625-1.234375 2.90625-3.703125s-.96875-3.703125-2.90625-3.703125c-.574219 0-1.078125.132813-1.515625.390625-.429688.261719-.765625.667969-1.015625 1.21875-.25.554688-.375 1.25-.375 2.09375 0 .835938.125 1.53125.375 2.09375.25.554688.585937.960938 1.015625 1.21875.4375.261719.941406.390625 1.515625.390625ZM116.680835 215.731844c-.679688 0-1.214844-.19140625-1.609375-.578125-.386719-.382813-.578125-.960937-.578125-1.734375v-11.296875h1.421875v11.203125c0 .40625.070313.699219.21875.875.15625.179688.398437.265625.734375.265625.1875 0 .382812-.035156.59375-.109375l.125.046875.15625 1.109375c-.105469.0625-.257812.1132812-.453125.15625-.1875.039062-.390625.0625-.609375.0625ZM123.578056 215.731844c-.90625 0-1.695312-.19140625-2.359375-.578125-.667969-.382813-1.183594-.945313-1.546875-1.6875-.367188-.738281-.546875-1.640625-.546875-2.703125s.179687-1.960938.546875-2.703125c.363281-.75.878906-1.316406 1.546875-1.703125.664063-.382812 1.453125-.578125 2.359375-.578125.894531 0 1.675781.195313 2.34375.578125.675781.386719 1.191406.953125 1.546875 1.703125.363281.742187.546875 1.640625.546875 2.703125s-.183594 1.964844-.546875 2.703125c-.355469.742187-.871094 1.304687-1.546875 1.6875-.667969.38671875-1.449219.578125-2.34375.578125Zm0-1.265625c.945312 0 1.675781-.300781 2.1875-.90625.507812-.601563.765625-1.535156.765625-2.796875 0-1.269531-.257813-2.203125-.765625-2.796875-.511719-.601563-1.242188-.90625-2.1875-.90625-.960938 0-1.695312.304687-2.203125.90625-.511719.605469-.765625 1.539063-.765625 2.796875 0 1.261719.253906 2.195312.765625 2.796875.507813.605469 1.242187.90625 2.203125.90625ZM130.742443 215.544344v-9.578125h1.34375v1.5l.171875.046875c.445312-1.082031 1.289062-1.625 2.53125-1.625.644531 0 1.132812.117188 1.46875.34375l-.375 1.203125-.171875.03125c-.355469-.175781-.746094-.265625-1.171875-.265625-.773438 0-1.367188.289062-1.78125.859375-.40625.574219-.609375 1.5-.609375 2.78125v4.703125ZM145.593372 211.075594l-6.578125.015625c.039063 1.167969.320313 2.023437.84375 2.5625.519531.542969 1.226563.8125 2.125.8125.675781 0 1.222656-.117187 1.640625-.359375.414062-.25.742188-.632812.984375-1.15625h.1875l.921875.546875c-.28125.699219-.730469 1.246094-1.34375 1.640625-.605469.3984375-1.402344.59375-2.390625.59375-.929687 0-1.726563-.18359375-2.390625-.546875-.667969-.363281-1.183594-.914063-1.546875-1.65625-.355469-.75-.53125-1.671875-.53125-2.765625s.1875-2.007812.5625-2.75c.382813-.75.90625-1.304688 1.5625-1.671875.65625-.375 1.40625-.5625 2.25-.5625 1.226563 0 2.1875.351563 2.875 1.046875.6875.6875 1.035156 1.714844 1.046875 3.078125 0 .53125-.011719.890625-.03125 1.078125Zm-1.1875-1.171875c-.023438-1.019531-.246094-1.757813-.671875-2.21875-.429687-.46875-1.042969-.703125-1.84375-.703125-.835937 0-1.492187.234375-1.96875.703125-.480469.46875-.773437 1.210937-.875 2.21875ZM154.335101 215.544344h-1.375v-12.6875h2.203125l3.859375 10.75h.171875l3.84375-10.75h2.140625v12.6875h-1.40625v-10.359375l-.21875-.03125-3.75 10.390625h-1.484375l-3.765625-10.390625-.21875.03125ZM172.61022 215.731844c-.90625 0-1.695312-.19140625-2.359375-.578125-.667969-.382813-1.183594-.945313-1.546875-1.6875-.367188-.738281-.546875-1.640625-.546875-2.703125s.179687-1.960938.546875-2.703125c.363281-.75.878906-1.316406 1.546875-1.703125.664063-.382812 1.453125-.578125 2.359375-.578125.894531 0 1.675781.195313 2.34375.578125.675781.386719 1.191406.953125 1.546875 1.703125.363281.742187.546875 1.640625.546875 2.703125s-.183594 1.964844-.546875 2.703125c-.355469.742187-.871094 1.304687-1.546875 1.6875-.667969.38671875-1.449219.578125-2.34375.578125Zm0-1.265625c.945312 0 1.675781-.300781 2.1875-.90625.507812-.601563.765625-1.535156.765625-2.796875 0-1.269531-.257813-2.203125-.765625-2.796875-.511719-.601563-1.242188-.90625-2.1875-.90625-.960938 0-1.695312.304687-2.203125.90625-.511719.605469-.765625 1.539063-.765625 2.796875 0 1.261719.253906 2.195312.765625 2.796875.507813.605469 1.242187.90625 2.203125.90625ZM179.774607 215.544344v-9.578125h1.34375v1.5l.171875.046875c.445312-1.082031 1.289062-1.625 2.53125-1.625.644531 0 1.132812.117188 1.46875.34375l-.375 1.203125-.171875.03125c-.355469-.175781-.746094-.265625-1.171875-.265625-.773438 0-1.367188.289062-1.78125.859375-.40625.574219-.609375 1.5-.609375 2.78125v4.703125ZM194.625536 211.075594l-6.578125.015625c.039063 1.167969.320313 2.023437.84375 2.5625.519531.542969 1.226563.8125 2.125.8125.675781 0 1.222656-.117187 1.640625-.359375.414062-.25.742188-.632812.984375-1.15625h.1875l.921875.546875c-.28125.699219-.730469 1.246094-1.34375 1.640625-.605469.3984375-1.402344.59375-2.390625.59375-.929687 0-1.726563-.18359375-2.390625-.546875-.667969-.363281-1.183594-.914063-1.546875-1.65625-.355469-.75-.53125-1.671875-.53125-2.765625s.1875-2.007812.5625-2.75c.382813-.75.90625-1.304688 1.5625-1.671875.65625-.375 1.40625-.5625 2.25-.5625 1.226563 0 2.1875.351563 2.875 1.046875.6875.6875 1.035156 1.714844 1.046875 3.078125 0 .53125-.011719.890625-.03125 1.078125Zm-1.1875-1.171875c-.023438-1.019531-.246094-1.757813-.671875-2.21875-.429687-.46875-1.042969-.703125-1.84375-.703125-.835937 0-1.492187.234375-1.96875.703125-.480469.46875-.773437 1.210937-.875 2.21875Zm0 0"/></svg>