<svg xmlns="http://www.w3.org/2000/svg" width="1920" viewBox="0 0 1440 810" height="1080" version="1.0"><path fill="#e6e6e6" d="M1048 275v-41h-6v41a9 9 0 0 0-5 4 9 9 0 0 0-1 4 9 9 0 0 0 1 4 9 9 0 0 0 10 4 8 8 0 0 0 2-1 8 8 0 0 0 3-3 8 8 0 0 0 1-5 10 10 0 0 0 0-3 8 8 0 0 0-3-3 9 9 0 0 0-2-1Zm0 0"/><path fill="#e6e6e6" d="M1063 688h-44V159h-17v529h-43a40 40 0 0 0-37 24 39 39 0 0 0-3 15h183a40 40 0 0 0-21-35 39 39 0 0 0-18-4Zm0 0"/><path fill="#6c63ff" d="M920 238h182l-11-139a19 19 0 0 0-4-10 19 19 0 0 0-12-8H950a19 19 0 0 0-16 8 19 19 0 0 0-3 10Zm0 0"/><path fill="#3f3d56" d="M403 566h557v-56a279 279 0 0 0-557 0Zm0 0"/><path d="M403 566h557v-56a279 279 0 0 0-557 0Zm0 0" fill-opacity=".2"/><path fill="#6c63ff" d="M475 586h428a93 93 0 0 0-6-32 87 87 0 0 0-51-48 84 84 0 0 0-28-4H561a87 87 0 0 0-66 30 83 83 0 0 0-19 46 87 87 0 0 0-1 8Zm0 0"/><path fill="#3f3d56" d="M510 491a84 84 0 0 1-22 58 90 90 0 0 1-39 25 92 92 0 0 1-33 3 83 83 0 0 1-46-19 90 90 0 0 1-27-38 84 84 0 0 1 2-62 85 85 0 0 1 58-50 87 87 0 0 1 82 23 90 90 0 0 1 21 35 81 81 0 0 1 4 25ZM1032 491a84 84 0 0 1-23 58 90 90 0 0 1-38 25 92 92 0 0 1-34 3 83 83 0 0 1-46-19 90 90 0 0 1-26-38 84 84 0 0 1 1-62 85 85 0 0 1 59-50 87 87 0 0 1 82 23 90 90 0 0 1 21 35 81 81 0 0 1 4 25Zm0 0"/><path fill="#3f3d56" d="M881 535v32H484v-32h-89v156a36 36 0 0 0 13 28 37 37 0 0 0 23 8h503a36 36 0 0 0 28-13 36 36 0 0 0 8-23V535Zm0 0"/><path d="M442 491a17 17 0 0 1-2 7 18 18 0 0 1-5 7 19 19 0 0 1-6 3 18 18 0 0 1-11-1 17 17 0 0 1-8-6 18 18 0 0 1-3-10 17 17 0 0 1 2-8 17 17 0 0 1 33 8ZM963 491a18 18 0 0 1-3 10 18 18 0 0 1-13 8 18 18 0 0 1-9-2 18 18 0 0 1-7-6 18 18 0 0 1-3-10 17 17 0 0 1 2-8 17 17 0 0 1 33 8Zm0 0" fill-opacity=".2"/><path fill="#ffb8b8" d="M713 222s2 32 14 39 0 53 0 53l-57 2-3-55s6-22 3-33c-3-10 43-6 43-6ZM777 675l-21 24 33 31 17-34ZM631 675l20 24-33 31-17-34Zm0 0"/><path fill="#2f2e41" d="M765 447s124 42 117 81c-7 40-60 179-60 179s-29 0-51-31l15-34s-7-19 5-23c12-3 19-63 19-63s-88-7-106-40l-35-82Zm0 0"/><path fill="#2f2e41" d="M642 447s-124 42-117 81c7 40 60 179 60 179s29 0 52-31l-16-34s7-19-5-23c-12-3-19-63-19-63s88-7 107-40l34-82ZM783 717s17-15 19-3c1 12-2 60-2 60s17 36-9 36-38-27-34-55c3-27-12-38-12-38s-19-38 0-41 26 5 26 5-7 31 12 36Zm0 0"/><path fill="#2f2e41" d="M624 717s-17-15-18-3c-2 12 1 60 1 60s-17 36 9 36 38-27 34-55c-3-27 12-38 12-38s19-38 0-41-25 5-25 5 6 31-13 36Zm0 0"/><path fill="#ffb8b8" d="M726 202a39 39 0 0 1-12 28 40 40 0 0 1-24 11 39 39 0 0 1-29-9 40 40 0 1 1 65-30Zm0 0"/><path fill="#e6e6e6" d="m692 270-24-19-58 27-2 157s-36 17-26 39c0 0 31 7 45 21 14 13 91-5 124-16 32-10 41-22 41-22l-33-46 19-119-58-39Zm0 0"/><path fill="#2f2e41" d="m734 175-2-4c-1-3 1-6-1-9s-7-3-10-5c-5-3-6-9-10-13-3-2-8-3-13-2l-13 1c-6 0-12-1-17-4l3 6c-4 0-7-2-10-4-2 2 1 5-1 7l-2 1c-6 1-12 4-18 8l-3 3v6c0 4-3 7-5 10-2 4-3 8 0 11l2 2c3 3-2 8 1 12l5 3a21 21 0 0 1 9 8l-2-11 1-2 3-1 1-2v-8c0-4 0-4 2-7l8-5 21-3c8-1 18-5 24-1 5 4 7 10 10 15 2 4 8 18 13 10 3-4 7-17 4-22Zm0 0"/><path fill="#3f3d56" d="M693 190v18h29v-18Zm0 0"/><path fill="#ff6584" d="M696 192a1 1 0 0 0-1 1v12a1 1 0 0 0 1 1v1h22a1 1 0 0 0 1-1h1v-14a1 1 0 0 0-1 0h-1Zm0 0"/><path fill="#3f3d56" d="M679 196h14v3h-14Zm0 0"/><path fill="#3f3d56" d="m653 190-1 1v17h30v-17l-1-1Zm0 0"/><path fill="#6c63ff" d="M656 192a1 1 0 0 0-1 1v12a1 1 0 0 0 0 1l1 1h22a1 1 0 0 0 1-1v-13a1 1 0 0 0 0-1h-1Zm0 0"/><path fill="#3f3d56" d="M637 397h99a15 15 0 0 1 14 9 15 15 0 0 1 1 6H622a15 15 0 0 1 7-13 15 15 0 0 1 8-2Zm0 0"/><path fill="#f9a825" d="M743 396h-2a3 3 0 0 0-2-2 3 3 0 0 0-3 1 3 3 0 0 0-1 2h-1l-2-2 2-2a4 4 0 0 0 2-1 4 4 0 0 0 2-1 4 4 0 0 0-1-6 5 5 0 0 0-2-1h-2a3 3 0 0 0-4-2 3 3 0 0 0-2 2 3 3 0 0 0 0 2h-3a5 5 0 0 0-2-3 5 5 0 0 0-8 3v1l-2 1v-1a4 4 0 0 0 2-3 5 5 0 0 0-1-2 5 5 0 0 0-4-2h-2a3 3 0 0 0-1-2 3 3 0 0 0-5 4 5 5 0 0 0-2 4v-1a5 5 0 0 0-1-2 4 4 0 0 0-1-1 5 5 0 0 0-3-1h-2v-1a3 3 0 0 0-4-1 3 3 0 0 0-2 4 5 5 0 0 0 0 9v2l-1 1a3 3 0 0 0-1-2h-2a3 3 0 0 0-2 1h-1v1h-2l2-2a4 4 0 0 0 2-1 4 4 0 0 0 2-1 4 4 0 0 0 1-2 4 4 0 0 0-2-4 4 4 0 0 0-2-1h-3a3 3 0 0 0-4-2 3 3 0 0 0-1 2 3 3 0 0 0-1 2l-2 1v-1a3 3 0 0 0-1-2 3 3 0 0 0-2-1 5 5 0 0 0-2-3 5 5 0 0 0-3-1 5 5 0 0 0-4 9l-1 1a3 3 0 0 0-2-3 3 3 0 0 0-2 1h-1a5 5 0 0 0-4-2h-1a3 3 0 1 0-6 2l-2 2-1 3h-2a3 3 0 0 0-4-3 3 3 0 0 0-2 2 3 3 0 0 0 0 3 5 5 0 0 0 1 9 5 5 0 0 0 3 0 5 5 0 0 0 3 4 5 5 0 0 0 3 0 5 5 0 0 0 3-1l1-2h12a5 5 0 0 0 1 2 5 5 0 0 0 8-2h3a5 5 0 0 0 3 2 5 5 0 0 0 4-1 5 5 0 0 0 2-2 5 5 0 0 1 4 1 5 5 0 0 1 2 2 8 8 0 0 1 6-3 5 5 0 0 0 6-2 5 5 0 0 0 0 3 5 5 0 0 0 1 2 5 5 0 0 0 3 1 6 6 0 0 0 3 0 5 5 0 0 0 2-2l1-1h2a5 5 0 0 0 6 2 5 5 0 0 0 3-3h3a5 5 0 0 0 3 2 5 5 0 0 0 4-1 5 5 0 0 0 2 3 5 5 0 0 0 7 0l1-1a5 5 0 0 0 6 1 5 5 0 0 0 2-3 4 4 0 0 0 2 0 4 4 0 0 0 2-2 4 4 0 0 0 0-1 4 4 0 0 0 0-2 4 4 0 0 0-4-3Zm-95-2h-1 1Zm44-2 2-3a5 5 0 0 0 4-1v1l-2 3h-4Zm32 0 1 2-1-2Zm0 0"/><path fill="#3f3d56" d="M633 402a11 11 0 0 0-11 12l7 99a11 11 0 0 0 9 10h95a11 11 0 0 0 11-8v-2l7-99a11 11 0 0 0-2-7 11 11 0 0 0-7-5h-2Zm0 0"/><path fill="#6c63ff" d="M638 402h7v121h-7ZM656 402h7v121h-7ZM674 402h7v121h-7ZM692 402h7v121h-7ZM710 402h7v121h-7ZM728 402h7v121h-7Zm0 0"/><path fill="#ffb8b8" d="m728 462-20 12s-50 41-16 48c35 7 43-29 43-29l12-14Zm0 0"/><path fill="#ffb8b8" d="m631 453 20 13s50 41 16 48c-35 6-43-30-43-30l-12-13Zm0 0"/><path fill="#e6e6e6" d="m756 290 22 2s17 15 16 36c0 0 15 45 12 64 0 0 3 31-2 43s-48 58-48 58-40-31-38-33l52-51-26-35ZM610 278l-1 1s-39 16-37 37c0 0-15 45-12 64 0 0-3 31 2 43s48 58 48 58 39-31 38-33l-52-51 26-35Zm0 0"/></svg>